<svg width="181" height="49" viewBox="0 0 181 49" fill="none" xmlns="http://www.w3.org/2000/svg">
<path d="M57.5572 38.8898C54.8418 38.8898 52.7521 38.1779 51.3475 36.7734C50.0796 35.4628 49.3779 33.5396 49.3779 31.3667C49.3779 27.0305 52.5104 24.4423 57.7575 24.4423H64.3967V22.5453C64.3967 19.3473 62.6675 17.8573 58.9549 17.8573C56.7437 17.8573 55.3653 18.3857 53.9454 19.8371L50.7149 16.6502C52.9538 14.3641 55.1774 13.5791 59.2035 13.5791C66.2516 13.5791 69.6783 16.3825 69.6783 22.148V38.6414H64.5459V35.5483L63.5183 36.5748C61.807 38.2841 60.2463 38.8898 57.5572 38.8898ZM58.8541 27.6762C54.9869 27.6762 54.4095 29.9263 54.4095 31.2673C54.4095 32.3324 54.8529 34.8088 58.9536 34.8088C60.6676 34.8088 61.9783 34.5729 63.2103 33.3961C64.2489 32.4993 64.394 31.0742 64.394 29.6725V27.6762H58.8541Z" fill="white"/>
<path d="M74.2749 48.1589V13.8765H79.3576V17.2842L80.4073 16.1198C82.055 14.2904 83.7483 13.5771 86.4457 13.5771C88.8379 13.5771 90.9718 14.3635 92.2991 15.7363C94.6319 18.112 94.8239 22.0577 94.8239 26.2325C94.8239 30.4348 94.6305 34.4027 92.3019 36.7756C90.9718 38.1511 88.8379 38.9375 86.4457 38.9375C83.8105 38.9375 82.0661 38.2242 80.6131 36.5521L79.5565 35.3367V48.1576H74.2749V48.1589ZM84.5494 18.2058C79.9418 18.2058 79.5565 22.3488 79.5565 26.2325C79.5565 30.141 79.9418 34.3102 84.5494 34.3102C89.157 34.3102 89.5423 30.141 89.5423 26.2325C89.5423 22.3488 89.157 18.2058 84.5494 18.2058Z" fill="white"/>
<path d="M106.583 38.6397C101.466 38.6397 99.6509 34.963 99.6509 31.8147V18.355H96.9065V14.6231H99.6509V6.94824H104.932V14.6231H109.523V18.355H104.932V31.416C104.932 33.3144 105.943 34.3601 107.78 34.3601H109.523V38.6397H106.583Z" fill="white"/>
<path d="M122.918 38.9389C115.338 38.9389 111.496 34.6634 111.496 26.2325C111.496 18.4265 115.605 13.5771 122.221 13.5771C128.836 13.5771 132.945 18.1589 132.945 25.5358V27.6756H116.679V28.2771C116.679 32.1539 119.149 34.6593 122.969 34.6593C125.755 34.6593 127.267 33.8853 128.85 32.4477L131.941 35.4581C129.654 37.6696 127.335 38.9389 122.918 38.9389ZM122.219 17.7574C119.987 17.7574 118.204 18.8667 117.33 20.8023C116.844 21.8273 116.732 22.5917 116.678 23.814L116.65 24.4417H127.787L127.759 23.814C127.707 22.5917 127.595 21.8287 127.103 20.7912C126.234 18.8667 124.451 17.7574 122.219 17.7574Z" fill="white"/>
<path d="M143.275 38.8898C140.56 38.8898 138.47 38.1779 137.064 36.7734C135.797 35.4628 135.094 33.5396 135.094 31.3667C135.094 27.0305 138.227 24.4423 143.474 24.4423H150.113V22.5453C150.113 19.3473 148.384 17.8573 144.671 17.8573C142.46 17.8573 141.082 18.3857 139.662 19.8371L136.431 16.6502C138.67 14.3641 140.894 13.5791 144.92 13.5791C151.968 13.5791 155.395 16.3825 155.395 22.148V38.6414H150.262V35.5483L149.235 36.5748C147.524 38.2841 145.964 38.8898 143.275 38.8898ZM144.572 27.6762C140.705 27.6762 140.127 29.9263 140.127 31.2673C140.127 32.3324 140.569 34.8088 144.671 34.8088C146.386 34.8088 147.695 34.5729 148.928 33.3961C149.967 32.4993 150.112 31.0742 150.112 29.6725V27.6762H144.572Z" fill="white"/>
<path d="M175.11 38.6395V23.5422C175.11 21.081 173.828 18.2058 170.216 18.2058C167.936 18.2058 165.273 19.6034 165.273 23.5422V38.6409H159.991V13.8765H165.124V17.1794L166.164 16.0798C167.668 14.4891 169.872 13.5771 172.213 13.5771C174.564 13.5771 176.539 14.3084 177.925 15.6935C179.655 17.4222 180.393 19.5013 180.393 22.6441V38.6395H175.11Z" fill="white"/>
<path d="M43.5631 32.0727L24.9546 1.627C24.5209 0.916488 23.6964 0.69575 23.0085 0.931667L42.1087 32.1817C42.4125 32.6783 42.4429 33.295 42.1888 33.8193L38.4182 41.5949C38.345 41.7452 38.2552 41.8791 38.1516 41.995C38.8588 42.1619 39.6571 41.8611 40.019 41.1148L43.6404 33.6468C43.8835 33.1433 43.8545 32.55 43.5631 32.0727Z" fill="#F8ED46"/>
<path d="M27.0583 37.5041L29.7737 36.6377L31.9159 40.1682L27.0583 37.5041Z" fill="#F8ED46"/>
<path d="M14.3804 12.0186L20.9866 22.6817L19.2767 26.5047L5.80615 30.6104L14.3804 12.0186Z" fill="#F8ED46"/>
<path d="M0.980439 41.0704L5.14742 32.0366L23.4078 26.4629L29.112 35.6195L2.73728 43.1191C1.51633 43.4668 0.450071 42.2224 0.980439 41.0704Z" fill="#F8ED46"/>
<path d="M40.6696 33.8231L37.0344 41.32C36.4681 42.4871 34.8369 42.5754 34.1477 41.4759L14.9385 10.8094L19.0019 1.86256C19.5488 0.656759 21.2242 0.554665 21.9147 1.68458L40.5936 32.2448C40.8864 32.7221 40.9141 33.3181 40.6696 33.8231Z" fill="#F8ED46"/>
<path d="M40.6696 33.8231L37.0344 41.32C36.4681 42.4871 34.8369 42.5754 34.1477 41.4759L14.9385 10.8094L19.0019 1.86256C19.5488 0.656759 21.2242 0.554665 21.9147 1.68458L40.5936 32.2448C40.8864 32.7221 40.9141 33.3181 40.6696 33.8231Z" fill="#F8ED46"/>
</svg>
